<svg width="372" height="414" viewBox="0 0 372 414" fill="none" xmlns="http://www.w3.org/2000/svg">
<path fill-rule="evenodd" clip-rule="evenodd" d="M151.425 65.9462C181.759 53.9875 212.038 43.1617 244.423 44.8579C282.948 46.8757 333.833 43.5658 352.044 76.4537C370.991 110.672 326.153 149.352 324.009 188.587C322.202 221.648 353.901 252.898 340.722 283.637C327.186 315.211 292.096 336.665 257.791 343.039C225.718 348.999 199.18 321.829 167.371 315.849C132.171 309.231 91.8853 326.332 62.7039 306.361C30.8927 284.59 8.29099 246.29 9.74008 207.972C11.1632 170.34 42.8143 140.869 69.9927 113.626C92.6611 90.9028 121.402 77.7824 151.425 65.9462Z" fill="#53D2DB" fill-opacity="0.15"/>
</svg>
