<svg width="30" height="24" viewBox="0 0 30 24" fill="none" xmlns="http://www.w3.org/2000/svg">
<mask id="path-1-inside-1" fill="white">
<path fill-rule="evenodd" clip-rule="evenodd" d="M3.08581 8.64592L10.6654 15.1654L10.0133 15.9235L1.41171 8.52499L0.971008 8.14592L1.41171 7.76686L10.0133 0.368294L10.6654 1.12643L3.08581 7.64592L14.0257 7.64592C22.3385 7.64592 29.2712 13.5092 29.2712 20.8292L29.2712 24L28.2712 24L28.2712 20.8292C28.2712 14.1976 21.9329 8.64592 14.0257 8.64592H3.08581Z"/>
</mask>
<path fill-rule="evenodd" clip-rule="evenodd" d="M3.08581 8.64592L10.6654 15.1654L10.0133 15.9235L1.41171 8.52499L0.971008 8.14592L1.41171 7.76686L10.0133 0.368294L10.6654 1.12643L3.08581 7.64592L14.0257 7.64592C22.3385 7.64592 29.2712 13.5092 29.2712 20.8292L29.2712 24L28.2712 24L28.2712 20.8292C28.2712 14.1976 21.9329 8.64592 14.0257 8.64592H3.08581Z" fill="black" fill-opacity="0.8"/>
<path d="M10.6654 15.1654L11.4235 15.8175L12.0756 15.0594L11.3175 14.4073L10.6654 15.1654ZM3.08581 8.64592V7.64592H0.38971L2.43371 9.40405L3.08581 8.64592ZM10.0133 15.9235L9.36115 16.6817L10.1193 17.3338L10.7714 16.5756L10.0133 15.9235ZM1.41171 8.52499L2.06381 7.76685H2.06381L1.41171 8.52499ZM0.971008 8.14592L0.318906 7.38779L-0.562495 8.14592L0.318907 8.90405L0.971008 8.14592ZM1.41171 7.76686L0.759607 7.00872L0.759607 7.00872L1.41171 7.76686ZM10.0133 0.368294L10.7714 -0.283808L10.1193 -1.04194L9.36115 -0.389838L10.0133 0.368294ZM10.6654 1.12643L11.3175 1.88456L12.0756 1.23246L11.4235 0.474324L10.6654 1.12643ZM3.08581 7.64592L2.43371 6.88779L0.389709 8.64592H3.08581V7.64592ZM29.2712 20.8292H28.2712H29.2712ZM29.2712 24L29.2712 25L30.2712 25V24L29.2712 24ZM28.2712 24H27.2712V25L28.2712 25L28.2712 24ZM28.2712 20.8292H27.2712H28.2712ZM11.3175 14.4073L3.73791 7.88779L2.43371 9.40405L10.0133 15.9235L11.3175 14.4073ZM10.7714 16.5756L11.4235 15.8175L9.90723 14.5133L9.25512 15.2714L10.7714 16.5756ZM0.759607 9.28312L9.36115 16.6817L10.6654 15.1654L2.06381 7.76685L0.759607 9.28312ZM0.318907 8.90405L0.759608 9.28312L2.06381 7.76685L1.62311 7.38779L0.318907 8.90405ZM0.759607 7.00872L0.318906 7.38779L1.62311 8.90405L2.06381 8.52499L0.759607 7.00872ZM9.36115 -0.389838L0.759607 7.00872L2.06381 8.52499L10.6654 1.12643L9.36115 -0.389838ZM11.4235 0.474324L10.7714 -0.283808L9.25512 1.0204L9.90723 1.77853L11.4235 0.474324ZM3.73791 8.40405L11.3175 1.88456L10.0133 0.368294L2.43371 6.88779L3.73791 8.40405ZM14.0257 6.64592L3.08581 6.64592V8.64592H14.0257V6.64592ZM30.2712 20.8292C30.2712 12.8195 22.7426 6.64592 14.0257 6.64592V8.64592C21.9345 8.64592 28.2712 14.1989 28.2712 20.8292H30.2712ZM30.2712 24L30.2712 20.8292L28.2712 20.8292L28.2712 24L30.2712 24ZM28.2712 25L29.2712 25L29.2712 23L28.2712 23L28.2712 25ZM27.2712 20.8292L27.2712 24L29.2712 24L29.2712 20.8292L27.2712 20.8292ZM14.0257 9.64592C21.5256 9.64592 27.2712 14.8845 27.2712 20.8292H29.2712C29.2712 13.5107 22.3402 7.64592 14.0257 7.64592V9.64592ZM3.08581 9.64592H14.0257V7.64592L3.08581 7.64592V9.64592Z" fill="#53D2DB" mask="url(#path-1-inside-1)"/>
</svg>
